<svg xmlns="http://www.w3.org/2000/svg" version="1.1" viewBox="0 0 1000 1000" preserveAspectRatio="none">

    <!--Color Palette HSL representation
        -pristine-white: hsl(0, 0%, 100%);
        -soft-silver-gray: hsl(0, 0%, 75%);
        -peach-cream-orange: hsl(30, 44%, 70%);
        -oceans-depths-teal: hsl(194, 94%, 26%);
        -charcoal-dust: hsl(0, 3%, 14%);
        -absolute-black: hsl(0, 0%, 0%);
        -less-muddy-white: hsl(43, 6%, 90%);
        -muddy-white: hsl(43, 6%, 79%);
    -->

    <!-- Pristine-white Color bubbles -->
    <circle cx="30" cy="20" r="30" fill="hsl(0, 0%, 100%, 0.4)" />
    <circle cx="70" cy="80" r="20" fill="hsl(0, 0%, 100%, 0.5)" />
    <circle cx="50" cy="50" r="50" fill="hsl(0, 0%, 100%, 0.2)" />

    <!-- soft-silver-gray Color bubbles -->
    <circle cx="300" cy="200" r="50" fill="hsl(0, 0%, 75%, 0.5)" />
    <circle cx="400" cy="400" r="100" fill="hsl(0, 0%, 75%, 0.2)" />
    <circle cx="500" cy="700" r="150" fill="hsl(0, 0%, 75%, 0.4)" />

    <!-- peach-cream-orange Color bubbles -->
    <circle cx="600" cy="100" r="70" fill="hsl(30, 44%, 70%, 0.2)" />
    <circle cx="700" cy="800" r="130" fill="hsl(30, 44%, 70%, 0.3)" />
    <circle cx="850" cy="400" r="90" fill="hsl(30, 44%, 70%, 0.5)" />

    <!-- oceans-depths-teal Color bubbles -->
    <circle cx="100" cy="900" r="80" fill="hsl(194, 94%, 26%, 0.4)" />
    <circle cx="200" cy="800" r="60" fill="hsl(194, 94%, 26%, 0.6)" />
    <circle cx="300" cy="700" r="120" fill="hsl(194, 94%, 26%, 0.3)" />

    <!-- charcoal-dust Color bubbles -->
    <circle cx="650" cy="300" r="80" fill="hsl(0, 3%, 14%, 0.2)" />
    <circle cx="350" cy="550" r="60" fill="hsl(0, 3%, 14%, 0.5)" />
    <circle cx="800" cy="200" r="100" fill="hsl(0, 3%, 14%, 0.4)" />

    <!-- absolute-black Color bubbles -->
    <circle cx="100" cy="100" r="70" fill="hsl(0, 0%, 0%, 0.6)" />
    <circle cx="500" cy="500" r="80" fill="hsl(0, 0%, 0%, 0.3)" />
    <circle cx="750" cy="750" r="90" fill="hsl(0, 0%, 0%, 0.2)" />

    <!-- less-muddy-white Color bubbles -->
    <circle cx="200" cy="200" r="50" fill="hsl(43, 6%, 90%, 0.2)" />
    <circle cx="600" cy="600" r="60" fill="hsl(43, 6%, 90%, 0.5)" />
    <circle cx="900" cy="900" r="70" fill="hsl(43, 6%, 90%, 0.4)" />

    <!-- muddy-white Color bubbles -->
    <circle cx="100" cy="400" r="50" fill="hsl(43, 6%, 79%, 0.4)" />
    <circle cx="200" cy="300" r="60" fill="hsl(43, 6%, 79%, 0.6)" />
    <circle cx="300" cy="200" r="70" fill="hsl(43, 6%, 79%, 0.3)" />

</svg>